<svg xmlns="http://www.w3.org/2000/svg" xmlns:xlink="http://www.w3.org/1999/xlink" viewBox="0 0 63.01 51.29"><defs><style>.cls-1{fill:url(#Degradado_sin_nombre_29);}.cls-2{fill:url(#Degradado_sin_nombre_29-2);}.cls-3{fill:url(#Degradado_sin_nombre_29-3);}.cls-4{fill:url(#Degradado_sin_nombre_29-4);}.cls-5{fill:url(#Degradado_sin_nombre_29-5);}.cls-6{fill:url(#Degradado_sin_nombre_29-6);}.cls-7{fill:url(#Degradado_sin_nombre_29-7);}.cls-8{fill:url(#Degradado_sin_nombre_29-8);}.cls-9{fill:url(#Degradado_sin_nombre_29-9);}.cls-10{fill:url(#Degradado_sin_nombre_29-10);}.cls-11{fill:url(#Degradado_sin_nombre_29-11);}.cls-12{fill:url(#Degradado_sin_nombre_29-12);}.cls-13{fill:url(#Degradado_sin_nombre_29-13);}.cls-14{fill:url(#Degradado_sin_nombre_29-14);}.cls-15{fill:url(#Degradado_sin_nombre_29-15);}.cls-16{fill:url(#Degradado_sin_nombre_29-16);}.cls-17{fill:url(#Degradado_sin_nombre_29-17);}.cls-18{fill:url(#Degradado_sin_nombre_29-18);}.cls-19{fill:url(#Degradado_sin_nombre_29-19);}.cls-20{fill:url(#Degradado_sin_nombre_29-20);}.cls-21{fill:url(#Degradado_sin_nombre_29-21);}.cls-22{fill:url(#Degradado_sin_nombre_29-22);}.cls-23{fill:url(#Degradado_sin_nombre_29-23);}.cls-24{fill:url(#Degradado_sin_nombre_29-24);}.cls-25{fill:url(#Degradado_sin_nombre_29-25);}.cls-26{fill:#102973;}.cls-27{fill:url(#Degradado_sin_nombre_82);}.cls-28{fill:url(#Degradado_sin_nombre_82-2);}.cls-29{fill:#fff;}</style><linearGradient id="Degradado_sin_nombre_29" x1="9.03" y1="43.76" x2="19.62" y2="43.76" gradientUnits="userSpaceOnUse"><stop offset="0" stop-color="#102973"/><stop offset="0.51" stop-color="#122a75"/><stop offset="0.81" stop-color="#1b2f7c"/><stop offset="1" stop-color="#253485"/></linearGradient><linearGradient id="Degradado_sin_nombre_29-2" x1="20.23" y1="43.76" x2="31.14" y2="43.76" xlink:href="#Degradado_sin_nombre_29"/><linearGradient id="Degradado_sin_nombre_29-3" x1="31.85" y1="43.73" x2="43.76" y2="43.73" xlink:href="#Degradado_sin_nombre_29"/><linearGradient id="Degradado_sin_nombre_29-4" x1="44.77" y1="43.76" x2="52.8" y2="43.76" xlink:href="#Degradado_sin_nombre_29"/><linearGradient id="Degradado_sin_nombre_29-5" x1="53.86" y1="43.76" x2="62.92" y2="43.76" xlink:href="#Degradado_sin_nombre_29"/><linearGradient id="Degradado_sin_nombre_29-6" x1="0" y1="43.81" x2="9.04" y2="43.81" xlink:href="#Degradado_sin_nombre_29"/><linearGradient id="Degradado_sin_nombre_29-7" x1="0.29" y1="50.44" x2="1.86" y2="50.44" xlink:href="#Degradado_sin_nombre_29"/><linearGradient id="Degradado_sin_nombre_29-8" x1="3.98" y1="50.46" x2="5.27" y2="50.46" xlink:href="#Degradado_sin_nombre_29"/><linearGradient id="Degradado_sin_nombre_29-9" x1="7.4" y1="50.44" x2="8.69" y2="50.44" xlink:href="#Degradado_sin_nombre_29"/><linearGradient id="Degradado_sin_nombre_29-10" x1="10.86" y1="50.44" x2="11.08" y2="50.44" xlink:href="#Degradado_sin_nombre_29"/><linearGradient id="Degradado_sin_nombre_29-11" x1="13.17" y1="50.44" x2="14.62" y2="50.44" xlink:href="#Degradado_sin_nombre_29"/><linearGradient id="Degradado_sin_nombre_29-12" x1="16.69" y1="50.44" x2="16.91" y2="50.44" xlink:href="#Degradado_sin_nombre_29"/><linearGradient id="Degradado_sin_nombre_29-13" x1="19.06" y1="50.44" x2="20.31" y2="50.44" xlink:href="#Degradado_sin_nombre_29"/><linearGradient id="Degradado_sin_nombre_29-14" x1="22.39" y1="50.44" x2="22.61" y2="50.44" xlink:href="#Degradado_sin_nombre_29"/><linearGradient id="Degradado_sin_nombre_29-15" x1="24.69" y1="50.44" x2="26.26" y2="50.44" xlink:href="#Degradado_sin_nombre_29"/><linearGradient id="Degradado_sin_nombre_29-16" x1="30.85" y1="50.44" x2="32.21" y2="50.44" xlink:href="#Degradado_sin_nombre_29"/><linearGradient id="Degradado_sin_nombre_29-17" x1="34.28" y1="50.44" x2="35.51" y2="50.44" xlink:href="#Degradado_sin_nombre_29"/><linearGradient id="Degradado_sin_nombre_29-18" x1="39.67" y1="50.44" x2="40.97" y2="50.44" xlink:href="#Degradado_sin_nombre_29"/><linearGradient id="Degradado_sin_nombre_29-19" x1="43" y1="50.44" x2="43.21" y2="50.44" xlink:href="#Degradado_sin_nombre_29"/><linearGradient id="Degradado_sin_nombre_29-20" x1="45.23" y1="50.44" x2="46.53" y2="50.44" xlink:href="#Degradado_sin_nombre_29"/><linearGradient id="Degradado_sin_nombre_29-21" x1="48.35" y1="50.44" x2="49.89" y2="50.44" xlink:href="#Degradado_sin_nombre_29"/><linearGradient id="Degradado_sin_nombre_29-22" x1="51.49" y1="50.44" x2="52.99" y2="50.44" xlink:href="#Degradado_sin_nombre_29"/><linearGradient id="Degradado_sin_nombre_29-23" x1="54.81" y1="50.46" x2="56.11" y2="50.46" xlink:href="#Degradado_sin_nombre_29"/><linearGradient id="Degradado_sin_nombre_29-24" x1="58.17" y1="50.44" x2="59.62" y2="50.44" xlink:href="#Degradado_sin_nombre_29"/><linearGradient id="Degradado_sin_nombre_29-25" x1="61.48" y1="50.44" x2="63.01" y2="50.44" xlink:href="#Degradado_sin_nombre_29"/><linearGradient id="Degradado_sin_nombre_82" x1="17.55" y1="27.38" x2="48.46" y2="9.53" gradientUnits="userSpaceOnUse"><stop offset="0" stop-color="#102973"/><stop offset="0.34" stop-color="#16619c"/><stop offset="0.61" stop-color="#1a8ab9"/><stop offset="0.76" stop-color="#1c99c4"/><stop offset="1" stop-color="#15a4c5"/></linearGradient><linearGradient id="Degradado_sin_nombre_82-2" x1="24.79" y1="20.54" x2="37.65" y2="13.12" xlink:href="#Degradado_sin_nombre_82"/></defs><g id="Capa_2" data-name="Capa 2"><g id="Capa_2-2" data-name="Capa 2"><path class="cls-1" d="M15.93,47.15H12.77l-.61,1.34H9L12.58,39h3.49l3.55,9.46H16.41Zm-.86-2.44-.86-2.3-.72,2.3Z"/><path class="cls-2" d="M27.12,47.15h-3l-.43,1.34H20.23L24,39h3.33l3.8,9.46H27.7Zm-.72-2.44-.83-2.44-.75,2.44Z"/><path class="cls-3" d="M31.85,39h4.37l1.66,5.25L39.46,39l4.3.06v9.46H40.62l.13-5.36-2,5.36H36.61l-1.89-5.36,0,5.36H31.85Z"/><path class="cls-4" d="M44.77,39h8v2.66H50.36v6.8H47.19v-6.8H44.77Z"/><path class="cls-5" d="M53.86,39H57v3.31h2.73V39h3.23v9.46H59.69V45H57v3.5h-3.1Z"/><path class="cls-6" d="M7,45.14a2.08,2.08,0,0,1-1.58.71,1.92,1.92,0,0,1-2-2,2,2,0,0,1,2-2.09A2.16,2.16,0,0,1,7,42.42L9,40a5.74,5.74,0,0,0-3.59-1.32,5.14,5.14,0,1,0,0,10.26A5.65,5.65,0,0,0,8.9,47.43Z"/><path class="cls-7" d="M.29,51.27V49.62H.62L1,50.79c0,.1.06.19.08.24l.09-.26.39-1.15h.29v1.65H1.65V49.89l-.48,1.38H1L.5,49.87v1.4Z"/><path class="cls-8" d="M5.06,49.62h.21v1a1.11,1.11,0,0,1,0,.4.55.55,0,0,1-.2.23.75.75,0,0,1-.39.09.74.74,0,0,1-.38-.08A.52.52,0,0,1,4,51,1.11,1.11,0,0,1,4,50.57v-1H4.2v1a.89.89,0,0,0,0,.32.29.29,0,0,0,.14.15.41.41,0,0,0,.23.06A.45.45,0,0,0,5,51a.6.6,0,0,0,.11-.42Z"/><path class="cls-9" d="M7.4,51.27V49.62h.22l.87,1.29V49.62h.2v1.65H8.47L7.61,50v1.3Z"/><path class="cls-10" d="M10.86,51.27V49.62h.22v1.65Z"/><path class="cls-11" d="M14.4,50.69l.22.05a.74.74,0,0,1-.25.41.64.64,0,0,1-.43.14.78.78,0,0,1-.43-.1.69.69,0,0,1-.26-.32,1,1,0,0,1-.08-.44,1.06,1.06,0,0,1,.09-.45.78.78,0,0,1,.28-.29.91.91,0,0,1,.4-.1.72.72,0,0,1,.42.13.62.62,0,0,1,.23.35l-.21,0a.56.56,0,0,0-.17-.26.46.46,0,0,0-.27-.08.53.53,0,0,0-.32.09.55.55,0,0,0-.18.24,1.19,1.19,0,0,0,0,.32,1.06,1.06,0,0,0,.06.37.43.43,0,0,0,.19.23.57.57,0,0,0,.28.08.49.49,0,0,0,.31-.11A.55.55,0,0,0,14.4,50.69Z"/><path class="cls-12" d="M16.69,51.27V49.62h.22v1.65Z"/><path class="cls-13" d="M19.06,51.27V49.62h.61l.25,0a.58.58,0,0,1,.21.07.51.51,0,0,1,.13.16.59.59,0,0,1,0,.23.52.52,0,0,1-.13.35.64.64,0,0,1-.49.15h-.42v.67Zm.21-.87h.43a.47.47,0,0,0,.3-.07.3.3,0,0,0,.09-.23.27.27,0,0,0-.06-.17.26.26,0,0,0-.13-.1h-.63Z"/><path class="cls-14" d="M22.39,51.27V49.62h.22v1.65Z"/><path class="cls-15" d="M24.69,50.47a.9.9,0,0,1,.22-.65.75.75,0,0,1,.57-.23.84.84,0,0,1,.41.11.68.68,0,0,1,.27.31.87.87,0,0,1,.1.44.92.92,0,0,1-.1.44.7.7,0,0,1-.29.3.77.77,0,0,1-.4.1.72.72,0,0,1-.41-.11.81.81,0,0,1-.28-.3A1,1,0,0,1,24.69,50.47Zm.22,0a.7.7,0,0,0,.16.47.54.54,0,0,0,.4.17.52.52,0,0,0,.41-.18.7.7,0,0,0,.16-.49,1,1,0,0,0-.07-.35.56.56,0,0,0-.2-.23.57.57,0,0,0-.29-.08.54.54,0,0,0-.4.16A.7.7,0,0,0,24.91,50.47Z"/><path class="cls-16" d="M30.85,51.27V49.62h.57a1.07,1.07,0,0,1,.29,0,.53.53,0,0,1,.24.11.8.8,0,0,1,.2.28,1.23,1.23,0,0,1,.06.39,1.18,1.18,0,0,1,0,.34,1.33,1.33,0,0,1-.11.24l-.15.15a.93.93,0,0,1-.2.08,1,1,0,0,1-.26,0Zm.22-.2h.35a.93.93,0,0,0,.26,0,.37.37,0,0,0,.14-.08.4.4,0,0,0,.12-.21,1,1,0,0,0,0-.32A.7.7,0,0,0,31.9,50a.37.37,0,0,0-.2-.19,1,1,0,0,0-.28,0h-.35Z"/><path class="cls-17" d="M34.28,51.27V49.62h1.19v.2h-1v.5h.91v.19H34.5v.56h1v.2Z"/><path class="cls-18" d="M40.21,51.27V49.82h-.54v-.2H41v.2h-.54v1.45Z"/><path class="cls-19" d="M43,51.27V49.62h.21v1.65Z"/><path class="cls-20" d="M45.23,51.27v-.21L46.07,50l.17-.19h-.91v-.2H46.5v.2L45.58,51l-.1.11h1.05v.2Z"/><path class="cls-21" d="M48.35,51.27,49,49.62h.24l.67,1.65h-.25l-.19-.5h-.69l-.18.5Zm.47-.68h.56l-.17-.45-.12-.35a1.92,1.92,0,0,1-.09.32Z"/><path class="cls-22" d="M52.12,51.27v-.7l-.63-1h.26l.32.5a2.61,2.61,0,0,1,.17.28,3.31,3.31,0,0,1,.18-.29l.32-.49H53l-.65,1v.7Z"/><path class="cls-23" d="M55.89,49.62h.22v1a1.09,1.09,0,0,1-.06.4.55.55,0,0,1-.2.23.75.75,0,0,1-.39.09.68.68,0,0,1-.37-.08.43.43,0,0,1-.21-.23.92.92,0,0,1-.07-.41v-1H55v1a.89.89,0,0,0,0,.32.29.29,0,0,0,.14.15.41.41,0,0,0,.23.06.49.49,0,0,0,.35-.11.67.67,0,0,0,.1-.42Z"/><path class="cls-24" d="M59.41,50.69l.21.05a.68.68,0,0,1-.24.41.66.66,0,0,1-.44.14.81.81,0,0,1-.43-.1.67.67,0,0,1-.25-.32,1,1,0,0,1-.09-.44.93.93,0,0,1,.1-.45.71.71,0,0,1,.28-.29.88.88,0,0,1,.4-.1.69.69,0,0,1,.41.13.62.62,0,0,1,.23.35l-.21,0a.5.5,0,0,0-.17-.26.46.46,0,0,0-.27-.08.57.57,0,0,0-.32.09.46.46,0,0,0-.17.24.91.91,0,0,0-.06.32.87.87,0,0,0,.07.37.43.43,0,0,0,.19.23.5.5,0,0,0,.27.08.45.45,0,0,0,.31-.11A.51.51,0,0,0,59.41,50.69Z"/><path class="cls-25" d="M61.48,51.27l.63-1.65h.23L63,51.27h-.24l-.2-.5h-.68l-.18.5Zm.47-.68h.56l-.17-.45a2.08,2.08,0,0,1-.12-.35,1.92,1.92,0,0,1-.09.32Z"/><path class="cls-26" d="M31.93,3.79A17.1,17.1,0,0,0,14.82,20.87a16.92,16.92,0,0,0,1.71,7.45A17.14,17.14,0,0,0,45,31.84c.26-.31.51-.64.75-1l.32-.45c.12-.17.23-.35.35-.53l.09-.15.31-.53A17.07,17.07,0,0,0,31.93,3.79ZM31.82,29a12,12,0,0,1-9.48-4.66l-.18-.23a12.24,12.24,0,0,1-2.39-7.29,12.05,12.05,0,1,1,17,11.11l-.25.11A11.85,11.85,0,0,1,31.82,29Z"/><path class="cls-27" d="M46.9,19A14.91,14.91,0,1,1,32,4,15,15,0,0,1,46.9,19ZM31.78,4.83a12.1,12.1,0,1,0,12,12.1A12,12,0,0,0,31.78,4.83Z"/><path class="cls-28" d="M25.22,15.68c-2.3,7.93,5,9.73,5,9.73s7,1.44,8.75-5.19S32,6,32,6A19.63,19.63,0,0,0,25.22,15.68Z"/><path class="cls-29" d="M25.26,31.17s.69-.59,2.35.38A3.13,3.13,0,0,0,31,31.2a3,3,0,0,1,2.38-.62c1.18.34.68,1.76.68,1.76a3.29,3.29,0,0,1-2.71,2h0a3.21,3.21,0,0,1-.81-.07,11.08,11.08,0,0,0-3.22-.63h-1a2,2,0,0,1-1.32-.45h0a1.3,1.3,0,0,1-.21-1.31A1.49,1.49,0,0,1,25.26,31.17Z"/><ellipse class="cls-29" cx="35.2" cy="31.04" rx="0.87" ry="0.53"/><ellipse class="cls-29" cx="35.1" cy="32.16" rx="0.7" ry="0.43"/><ellipse class="cls-29" cx="34.61" cy="33.05" rx="0.65" ry="0.4"/><ellipse class="cls-29" cx="33.87" cy="33.8" rx="0.57" ry="0.35"/><ellipse class="cls-29" cx="32.93" cy="34.4" rx="0.53" ry="0.33"/><path class="cls-29" d="M45,31.84c.26-.31.51-.64.75-1Z"/><path class="cls-29" d="M45.79,30.87c-.24.33-.49.66-.75,1h0a3.05,3.05,0,0,1-2.38-.62,3.44,3.44,0,0,0-1.17-.59,2.72,2.72,0,0,0-2.19.24c-1.65,1-2.34.37-2.34.37a1.44,1.44,0,0,1-.56-.72,1.32,1.32,0,0,1,.21-1.31h0a1.93,1.93,0,0,1,1.32-.45h1a10.88,10.88,0,0,0,3.22-.62,3.12,3.12,0,0,1,.8-.07h0a3.92,3.92,0,0,1,.77.2,3.18,3.18,0,0,1,1.94,1.83A2.17,2.17,0,0,1,45.79,30.87Z"/><path class="cls-29" d="M46.46,29.89c-.12.18-.23.36-.35.53a.27.27,0,0,1,0-.15C46.06,30.1,46.22,30,46.46,29.89Z"/><path class="cls-29" d="M46.86,29.21l-.31.53a.86.86,0,0,1-.28,0c-.36,0-.65-.18-.65-.4s.29-.4.65-.4A.75.75,0,0,1,46.86,29.21Z"/><ellipse class="cls-29" cx="45.54" cy="28.63" rx="0.57" ry="0.35"/><ellipse class="cls-29" cx="44.59" cy="28.03" rx="0.53" ry="0.33"/><path class="cls-29" d="M22.84,30.89a1,1,0,0,1-.67.52,3,3,0,0,1-2.38-.61,3.38,3.38,0,0,0-2.26-.71,17.1,17.1,0,0,1-1-1.77,13.05,13.05,0,0,0,2.79-.62,2.6,2.6,0,0,1,.45-.07h.38a3.28,3.28,0,0,1,2.7,2A1.82,1.82,0,0,1,22.84,30.89Z"/><ellipse class="cls-29" cx="24.02" cy="30.95" rx="0.87" ry="0.53"/><ellipse class="cls-29" cx="23.93" cy="29.84" rx="0.7" ry="0.43"/><ellipse class="cls-29" cx="23.43" cy="28.95" rx="0.65" ry="0.4"/><ellipse class="cls-29" cx="22.7" cy="28.2" rx="0.57" ry="0.35"/><ellipse class="cls-29" cx="21.76" cy="27.6" rx="0.53" ry="0.33"/><path class="cls-26" d="M13.58,25.78v-.51a1.11,1.11,0,0,1,.68.17,1,1,0,0,1,.39.56,1,1,0,0,1-.08.87,1.25,1.25,0,0,1-.77.59,1.39,1.39,0,0,1-1,0,1.14,1.14,0,0,1-.58-.7,1,1,0,0,1,0-.78,1,1,0,0,1,.36-.38l.26.44a.49.49,0,0,0-.23.26.49.49,0,0,0,0,.36A.59.59,0,0,0,13,27a1,1,0,0,0,.66,0,1.11,1.11,0,0,0,.58-.36.54.54,0,0,0,.05-.48.5.5,0,0,0-.22-.29A.75.75,0,0,0,13.58,25.78Z"/><path class="cls-26" d="M13,24.93a1.55,1.55,0,0,1-.65,0,1.12,1.12,0,0,1-.37-.17,1,1,0,0,1-.27-.28,1.28,1.28,0,0,1-.18-.51,1.17,1.17,0,0,1,.18-.91,1.34,1.34,0,0,1,.88-.48,1.29,1.29,0,0,1,1,.16,1.17,1.17,0,0,1,.48.8,1.14,1.14,0,0,1-.19.92A1.29,1.29,0,0,1,13,24.93Zm-.11-.51a.9.9,0,0,0,.6-.29.65.65,0,0,0,.13-.52.61.61,0,0,0-.29-.45,1,1,0,0,0-.67-.08.89.89,0,0,0-.59.29.63.63,0,0,0-.13.52.66.66,0,0,0,.3.45A.89.89,0,0,0,12.9,24.42Z"/><path class="cls-26" d="M13.78,22l-2.47,0v-.74L13,20.8l-1.69-.42v-.75l2.47,0v.46l-1.94,0,1.95.46V21l-1.93.51,1.94,0Z"/><path class="cls-26" d="M13.82,19.1l-2.46-.23.05-.5,2.45.24Z"/><path class="cls-26" d="M13.1,18.07l0-.48a.61.61,0,0,0,.38-.11.49.49,0,0,0,.18-.33.58.58,0,0,0,0-.38.28.28,0,0,0-.21-.16.22.22,0,0,0-.16,0,.45.45,0,0,0-.13.16,1.76,1.76,0,0,0-.18.37,1.26,1.26,0,0,1-.35.5.65.65,0,0,1-.53.14.67.67,0,0,1-.32-.17.64.64,0,0,1-.19-.35,1.4,1.4,0,0,1,0-.5,1,1,0,0,1,.33-.64.75.75,0,0,1,.58-.15l-.07.5a.37.37,0,0,0-.29.08.47.47,0,0,0-.14.3.58.58,0,0,0,0,.35.19.19,0,0,0,.14.1.2.2,0,0,0,.16,0,1.51,1.51,0,0,0,.25-.42,2.68,2.68,0,0,1,.27-.5.73.73,0,0,1,.3-.22.75.75,0,0,1,.4,0,.7.7,0,0,1,.37.19.78.78,0,0,1,.21.38,1.41,1.41,0,0,1,0,.54,1.1,1.1,0,0,1-.35.67A1,1,0,0,1,13.1,18.07Z"/><path class="cls-26" d="M14.39,15.83,12,15.16l.13-.48,2.38.67Z"/><path class="cls-26" d="M13.48,14.51a1.79,1.79,0,0,1-.55-.34,1.36,1.36,0,0,1-.23-.34,1,1,0,0,1-.08-.38,1.34,1.34,0,0,1,.1-.53,1.16,1.16,0,0,1,.64-.68,1.27,1.27,0,0,1,1,0,1.29,1.29,0,0,1,.75.65,1.12,1.12,0,0,1,0,.93,1.17,1.17,0,0,1-.63.69A1.29,1.29,0,0,1,13.48,14.51Zm.17-.49a.87.87,0,0,0,.66.06.64.64,0,0,0,.39-.38.65.65,0,0,0,0-.53,1.17,1.17,0,0,0-1.19-.48.69.69,0,0,0-.36.92A.93.93,0,0,0,13.65,14Z"/><path class="cls-26" d="M15.68,12.38l-2.13-1.23.24-.42,1.93-.05-1.43-.83.24-.4,2.13,1.24-.25.43-1.89.06,1.39.8Z"/><path class="cls-26" d="M15.7,7.81l.6-.69a1.87,1.87,0,0,1,.34-.32.9.9,0,0,1,.42-.13,1,1,0,0,1,.45.08,2.14,2.14,0,0,1,.5.33,1.54,1.54,0,0,1,.34.4,1.05,1.05,0,0,1,.16.48,1,1,0,0,1-.09.4,1.31,1.31,0,0,1-.25.36l-.61.71Zm.64-.1,1.23,1.07.25-.28A1.22,1.22,0,0,0,18,8.26.63.63,0,0,0,18.05,8,.48.48,0,0,0,18,7.79a1.79,1.79,0,0,0-.31-.34,1.24,1.24,0,0,0-.36-.25.56.56,0,0,0-.27,0,.43.43,0,0,0-.24.1,1.88,1.88,0,0,0-.29.29Z"/><path class="cls-26" d="M19.23,7.57,17.61,5.72,19,4.52l.28.31-1,.88.36.41.93-.82.27.31-.93.82.44.5,1-.9.27.31Z"/><path class="cls-26" d="M23.62,4.42l-.46.28-.47-.37-.85.5.11.59-.45.27-.44-2.61.45-.27Zm-1.28-.37-.76-.61.18,1Z"/><path class="cls-26" d="M24.58,3l-.16-.39,1-.41.38.91a1.38,1.38,0,0,1-.32.42A1.75,1.75,0,0,1,25,3.9a1.52,1.52,0,0,1-.68.11,1.07,1.07,0,0,1-.58-.27,1.38,1.38,0,0,1-.39-.55,1.39,1.39,0,0,1-.11-.69,1.08,1.08,0,0,1,.26-.61,1.29,1.29,0,0,1,.5-.34,1.23,1.23,0,0,1,.73-.1.9.9,0,0,1,.51.37l-.42.27a.57.57,0,0,0-.29-.19.62.62,0,0,0-.37.05.67.67,0,0,0-.4.39.82.82,0,0,0,.06.64,1,1,0,0,0,.43.53.68.68,0,0,0,.56,0A.87.87,0,0,0,25,3.34a1.06,1.06,0,0,0,.2-.24l-.12-.29Z"/><path class="cls-26" d="M25.74.93,26.23.8l.33,1.29a2.26,2.26,0,0,0,.12.4.41.41,0,0,0,.21.2.49.49,0,0,0,.34,0,.5.5,0,0,0,.29-.16.34.34,0,0,0,.07-.24c0-.08,0-.22-.08-.41L27.16.56l.49-.12L28,1.69a4.48,4.48,0,0,1,.12.62.72.72,0,0,1-.07.33.83.83,0,0,1-.23.27,1.29,1.29,0,0,1-.44.19,1.42,1.42,0,0,1-.54.06A.82.82,0,0,1,26.48,3a.55.55,0,0,1-.2-.23,2.72,2.72,0,0,1-.21-.59Z"/><path class="cls-26" d="M31,2.47l-.54.06L30.18,2l-1,.11-.14.58-.52.06L29.21.19l.52,0Zm-1-.86L29.53.74l-.23.94Z"/><path class="cls-26" d="M32.75,2.52l.06-1L32,0l.58,0,.52,1,.63-.93.57,0-1,1.37-.07,1Z"/><path class="cls-26" d="M37.37,3.34l-.52-.13-.07-.6-1-.24-.33.49L35,2.73,36.52.58,37,.71Zm-.64-1.17-.11-1-.54.8Z"/><path class="cls-26" d="M37.65,3.45l.88-2.28.47.18-.74,1.89,1.16.45-.15.39Z"/><path class="cls-26" d="M41.42,4.19l.35.37a1.13,1.13,0,0,1-.61.35,1,1,0,0,1-.67-.15,1,1,0,0,1-.55-.68,1.29,1.29,0,0,1,.16-1,1.4,1.4,0,0,1,.74-.69,1.11,1.11,0,0,1,.9.1,1,1,0,0,1,.51.59,1,1,0,0,1,0,.52l-.49-.14a.47.47,0,0,0,0-.35.5.5,0,0,0-.24-.26.58.58,0,0,0-.48,0,.93.93,0,0,0-.46.48A1.07,1.07,0,0,0,40.4,4a.58.58,0,0,0,.29.38.51.51,0,0,0,.36.05A.74.74,0,0,0,41.42,4.19Z"/><path class="cls-26" d="M43.56,6.78l-.43-.32.16-.58L42.5,5.3l-.5.32-.43-.31L43.82,3.9l.42.32Zm-.15-1.32.27-.94-.81.53Z"/><path class="cls-26" d="M43.76,7l1.73-1.76.34.34L45.4,7.44l1.15-1.17.33.32L45.15,8.35,44.8,8l.42-1.84L44.09,7.3Z"/><path class="cls-26" d="M45.85,9.2l1.61-1.27L47,7.35l.33-.25,1.21,1.54-.33.26-.45-.58L46.16,9.59Z"/><path class="cls-26" d="M47.83,12.13l-.29-.47.37-.47-.52-.84-.59.12L46.53,10l2.6-.48.28.45Zm.35-1.3.6-.77-1,.2Z"/><path class="cls-26" d="M47.94,12.38l2.25-1,.43,1a2.12,2.12,0,0,1,.17.55.58.58,0,0,1-.1.36.69.69,0,0,1-.31.25.65.65,0,0,1-.49,0,.83.83,0,0,1-.41-.35,1,1,0,0,1-.08.32,2.13,2.13,0,0,1-.25.42l-.32.47-.24-.54.35-.55a2.78,2.78,0,0,0,.22-.38.45.45,0,0,0,0-.18.83.83,0,0,0-.08-.24l0-.09-.94.41Zm1.5-.12.15.33a2,2,0,0,0,.21.4.24.24,0,0,0,.15.09.33.33,0,0,0,.19,0,.32.32,0,0,0,.16-.14.37.37,0,0,0,0-.21s-.06-.15-.14-.34L50,12Z"/><path class="cls-26" d="M48.89,14.69l2.34-.78.16.48-2.34.77Z"/><path class="cls-26" d="M49.21,15.66l2.38-.56.12.48-2,.47.28,1.2-.4.1Z"/><path class="cls-26" d="M49.67,17.73l2.43-.27,0,.49-2,.23.13,1.23-.41.05Z"/><path class="cls-26" d="M49.85,22.05v-.54l.56-.21,0-1-.56-.22v-.52l2.45,1v.53Zm1-.9.92-.33-.91-.34Z"/><path class="cls-26" d="M52.24,22.7l-.13.89a2.64,2.64,0,0,1-.12.46.83.83,0,0,1-.28.33,1,1,0,0,1-.44.17,1.87,1.87,0,0,1-.58,0,2,2,0,0,1-.51-.16,1.07,1.07,0,0,1-.39-.33.82.82,0,0,1-.14-.37,1.42,1.42,0,0,1,0-.45l.14-.92Zm-.48.42-1.62-.25,0,.37a1.33,1.33,0,0,0,0,.3.52.52,0,0,0,.07.22.5.5,0,0,0,.22.16,1.59,1.59,0,0,0,.44.12,1.75,1.75,0,0,0,.44,0,.56.56,0,0,0,.26-.11.57.57,0,0,0,.15-.21,2.94,2.94,0,0,0,.08-.4Z"/><path class="cls-26" d="M50.59,25a1.52,1.52,0,0,1,.57.29,1.14,1.14,0,0,1,.26.32.85.85,0,0,1,.12.37,1.26,1.26,0,0,1-.06.53,1.17,1.17,0,0,1-.58.74,1.28,1.28,0,0,1-1,0,1.31,1.31,0,0,1-.8-.58,1.1,1.1,0,0,1-.07-.93,1.15,1.15,0,0,1,.57-.74A1.26,1.26,0,0,1,50.59,25Zm-.13.49a1,1,0,0,0-.67,0,.68.68,0,0,0-.35.41.65.65,0,0,0,.07.53.92.92,0,0,0,.56.37.93.93,0,0,0,.66,0,.67.67,0,0,0,.34-.41A.63.63,0,0,0,51,25.9,1,1,0,0,0,50.46,25.53Z"/></g></g></svg>