<svg xmlns="http://www.w3.org/2000/svg" viewBox="0 0 56.23 80.61"><defs><style>.cls-1{fill:#f4f7e8;stroke:#000;stroke-miterlimit:10;}</style></defs><g id="Capa_2" data-name="Capa 2"><g id="Capa_2-2" data-name="Capa 2"><polygon class="cls-1" points="0.92 60.16 1.49 59.26 1.49 57.73 2 56.14 2 53.18 2.76 52.31 2.76 50.53 4.1 48.97 4.1 46.93 4.58 46.01 4.58 45.02 4.74 43.52 5.25 42.79 5.79 41.51 5.79 40.91 6.08 40.11 6.08 38.58 6.24 38.26 6.24 37.75 6.49 37.31 6.49 36.06 6.72 35.43 6.88 34.25 6.88 33.61 7.07 32.84 7.42 32.53 7.42 31.48 7.7 30.93 8.24 29.37 8.24 27.97 9.23 26.12 9.49 23.95 9.9 22.87 10.06 22.01 10.48 21.15 10.48 19.97 11.14 19.17 11.3 17.9 11.65 16.82 11.65 15.96 12.07 15.38 12.42 14.49 12.58 13.53 13.5 12.04 13.95 11.81 13.95 11.14 14.17 10.73 14.3 10.44 14.3 10.03 14.46 9.74 14.46 9.39 14.81 9.39 15.32 8.79 15.96 8.31 15.96 7.86 16.21 7.86 16.21 7.29 16.63 6.33 17.49 6.17 17.49 5.28 18.09 4.87 18.51 4.71 19.02 3.81 19.94 3.34 20.51 3.34 20.99 2.38 22.27 2 22.84 1.74 23.8 1.74 24.75 1.33 25.42 0.91 26.06 0.69 27.72 0.69 28.64 0.69 29.21 0.5 29.88 0.5 31.13 1.26 31.99 1.14 32.43 1.84 33.29 1.9 34.31 2.76 35.49 3.4 36.19 3.62 36.89 4.71 37.69 4.77 38.23 5.03 38.49 6.08 39.22 7 40.11 8.18 40.49 9.2 40.84 10.22 40.84 11.02 41.35 11.3 41.64 12.1 42.25 13.09 42.47 14.01 43.04 15.16 43.04 15.89 43.52 16.46 43.68 17.71 44.35 18.89 44.35 20.45 44.96 21.44 44.96 22.17 45.15 22.71 45.56 24.08 45.56 25.64 45.75 26.15 46.04 26.76 46.29 28.38 46.52 29.24 46.8 29.69 46.8 30.1 47.35 30.58 47.09 31.32 47.35 31.76 47.35 32.56 47.54 33.48 47.86 34.34 47.86 34.88 48.21 35.52 48.21 36.35 49 36.92 48.84 37.4 49 37.59 49 39.79 49.29 40.14 49.29 40.91 49.29 42.05 50.12 42.95 49.93 43.39 49.9 43.93 50.12 44.35 50.12 44.7 50.25 45.21 50.41 45.5 51.04 46.39 51.04 47.15 51.36 47.82 51.36 48.55 51.65 49.29 51.65 49.83 52.35 51.49 52.51 52.35 53.15 52.92 52.92 54.07 53.59 55.28 53.59 55.57 53.59 56.2 53.91 57.03 54.13 57.48 54.13 57.99 54.52 58.53 54.33 58.88 54.33 59.39 55.06 60.16 0.92 60.16"/><path d="M3.61,58.82a.65.65,0,0,1,0-.93c.08-.06.13,0,.27-.09s.24-.32.39-.38.74.28.71.54-.24.18-.36.48,0,.2-.09.29A.65.65,0,0,1,3.61,58.82Z"/><path d="M4.73,52.29c.16,0,.23-.18.38-.16s.13.11.25.3a1.51,1.51,0,0,1,.14.31,2.46,2.46,0,0,1,.06.4,5.06,5.06,0,0,0,.12.59,1.92,1.92,0,0,1,.09.34c0,.18.05.36,0,.47s-.46.11-.65,0a1.48,1.48,0,0,1-.29-.24,2.81,2.81,0,0,1-.54-.57c-.09-.16,0-.19-.16-.36s-.19-.23-.18-.33.14-.12.2-.28-.06-.27,0-.42a.38.38,0,0,1,.39-.2C4.62,52.19,4.63,52.28,4.73,52.29Z"/><path d="M5,48a.88.88,0,0,1,.11-.55,1,1,0,0,1,1.25-.33.92.92,0,0,1,.32.81.5.5,0,0,0,0,.24c0,.08.11.09.15.15s-.06.35-.14.45a1,1,0,0,1-1,.3A1.15,1.15,0,0,1,5,48Z"/><path d="M7,41.26a.89.89,0,0,1,.92.8,1.11,1.11,0,0,1-.17.41,1.41,1.41,0,0,1-.39.56.79.79,0,0,1-.68.15,1,1,0,0,1-.44-1.06C6.3,41.8,6.54,41.3,7,41.26Z"/><path d="M7.41,38c0-.3.15-.38.4-.86s.31-.78.53-.86a.56.56,0,0,1,.48.07c.31.2.28.66.27.91a1.83,1.83,0,0,1-.19.72,1.24,1.24,0,0,1-.4.62.81.81,0,0,1-1-.05A.68.68,0,0,1,7.41,38Z"/><path d="M8.35,32.19a.93.93,0,0,1,.72-.36.74.74,0,0,1,.55.27,1,1,0,0,1,0,1,1.19,1.19,0,0,1-.83.56.67.67,0,0,1-.53-.07c-.31-.23-.18-.8-.16-.88A1.28,1.28,0,0,1,8.35,32.19Z"/><path d="M10.52,28.34a.74.74,0,0,0,.5-.19c.13-.13.09-.21.21-.45s.38-.35.52-.69a.82.82,0,0,0,.08-.52.69.69,0,0,0-.45-.51c-.48-.11-1.15.63-1.07,1.11s.1.61.1.61a.32.32,0,0,1,0,.27c-.05.06-.1.05-.12.11s0,.18.12.23A.22.22,0,0,0,10.52,28.34Z"/><path d="M10.73,21.79a1.44,1.44,0,0,0,1,.93c.14,0,.41.08.55,0a1,1,0,0,1,.14-.11c.12-.06.21,0,.29,0s.39-.34.43-.6a1.08,1.08,0,0,0-.86-1.1,1.05,1.05,0,0,0-.62.09c-.34.19-.42.52-.73.54-.09,0-.18,0-.23.05S10.66,21.59,10.73,21.79Z"/><path d="M14.33,17.1c0-.56.37-.67.32-1.08s-.33-.69-.57-.67-.34.74-.93,1a.51.51,0,0,0-.28.19.64.64,0,0,0,0,.57,1.29,1.29,0,0,0,.92.67c.2.05.43.12.54,0S14.32,17.46,14.33,17.1Z"/><path d="M15.75,11.42a1,1,0,0,1,.09,1.38.82.82,0,0,1-1.45-.47A1.1,1.1,0,0,1,15.75,11.42Z"/><path d="M16.38,8.5c0-.29.29-.55.47-.65s.2,0,.31-.13.17-.44.35-.59a.77.77,0,0,1,1,.24c.06.14,0,.29-.11.54A1.67,1.67,0,0,1,17.49,9a1,1,0,0,1-.66,0C16.75,8.9,16.42,8.76,16.38,8.5Z"/><path d="M19.77,5.34c0-.51.59-.9,1-1a.58.58,0,0,1,.47,0c.19.16,0,.47.12,1a.36.36,0,0,1,0,.27.44.44,0,0,1-.34.16c-.33.05-.44-.09-.65,0s-.14.16-.24.17S19.77,5.65,19.77,5.34Z"/><path d="M23.35,2.39A1.45,1.45,0,0,1,24.49,4a.75.75,0,0,1-.27.5,1,1,0,0,1-1,0c-.52-.21-1-.72-.88-1,0-.1.1-.12.18-.33s.06-.28.11-.39A.78.78,0,0,1,23.35,2.39Z"/><path d="M26.52,2.3c.59.08.78.24.83.39s0,.18.11.23.19,0,.33-.06a.75.75,0,0,1,.7.3c.25.36,0,.88-.1,1a1,1,0,0,1-.29.37,1.44,1.44,0,0,1-1.93-.43,1.51,1.51,0,0,1,0-1.11A2.21,2.21,0,0,1,26.52,2.3Z"/><path d="M30.75,3.73a1.11,1.11,0,0,1,.86.73.34.34,0,0,0,.06.18c.06.1.14.11.2.16a.56.56,0,0,1,0,.71c-.11.11-.2,0-.57.18s-.32.17-.45.18c-.38,0-.88-.51-.93-1.09,0-.35.08-.87.44-1A.66.66,0,0,1,30.75,3.73Z"/><path d="M33.69,6.26c.29-.12.65.14.83.33a3.66,3.66,0,0,1,.23.33c.3.38.56.36.65.6a.79.79,0,0,1-.11.56c-.06.13-.35.76-.83.76a.94.94,0,0,1-.81-.66c-.18-.48.13-1-.12-1.34a.35.35,0,0,1-.09-.23A.45.45,0,0,1,33.69,6.26Z"/><path d="M36.69,10.21c.3,0,.27.44.9,1.25a.57.57,0,0,1,.18.43.61.61,0,0,1-.3.43.89.89,0,0,1-.88,0,1.11,1.11,0,0,1-.51-.71,1.13,1.13,0,0,1,0-.74C36.17,10.6,36.41,10.21,36.69,10.21Z"/><path d="M38,13.79a1,1,0,0,1,.65-.3.73.73,0,0,1,.41,0,.89.89,0,0,1,.44.54c.13.29.32.74.08,1.06a.9.9,0,0,1-.93.22,1.07,1.07,0,0,1-.7-.73A.9.9,0,0,1,38,13.79Z"/><path d="M38.6,17.18a.7.7,0,0,1,.24-.55c.23-.15.54,0,.76.1s.72.33.81.83a.84.84,0,0,1-.26.83c-.1.07-.35,0-.84,0-.08,0-.43,0-.43-.09s0,0,.13-.11.09-.09.08-.13S39,18,38.94,18A.85.85,0,0,1,38.6,17.18Z"/><path d="M40,19.47c.11-.15.9,0,1.19.49a.88.88,0,0,1,0,.82A.5.5,0,0,1,41,21c-.25.13-.57-.05-.71-.13a1.28,1.28,0,0,1-.57-.66c-.07-.21-.07-.47,0-.52s.1,0,.15,0S40,19.52,40,19.47Z"/><path d="M40.77,22.5c-.2.21-.1.58-.07.69.1.36.31.43.32.77,0,.18,0,.24,0,.32s.26,0,.69.1.32.09.41.05.11-.16.34-.53c.08-.14.1-.15.1-.2s-.21-.23-.4-.5-.07-.27-.22-.46a.93.93,0,0,0-.59-.36A.65.65,0,0,0,40.77,22.5Z"/><path d="M42.4,27c.05.2-.1.27-.14.54a1,1,0,0,0,.13.6.7.7,0,0,0,1.33,0,1.06,1.06,0,0,0,0-1c-.18-.3-.57-.58-.82-.49s-.18.14-.33.14-.24-.09-.27-.06S42.37,26.87,42.4,27Z"/><path d="M43,30.05a1.32,1.32,0,0,1,1.5,1,1.67,1.67,0,0,1-.14.54,1.32,1.32,0,0,1-.28.59,1,1,0,0,1-1.19-.35c-.13-.24,0-.32-.09-.84-.07-.32-.18-.47-.09-.66A.54.54,0,0,1,43,30.05Z"/><path d="M44.7,34.11c.58.18.62,1,.62,1A1.07,1.07,0,0,1,45,36a.91.91,0,0,1-.76.23,1.24,1.24,0,0,1-.6-1.72A1,1,0,0,1,44.7,34.11Z"/><path d="M43,38.51c.39,0,.6.64.58,1.06,0,.12,0,.51-.31.66a.71.71,0,0,1-.66-.09.87.87,0,0,1-.35-.84C42.31,38.9,42.66,38.48,43,38.51Z"/><path d="M45.42,42.24a.75.75,0,0,1,.82-.21c.1,0,.1.1.43.84a3.09,3.09,0,0,0,.23.44c.14.2.23.23.28.4a.51.51,0,0,1,0,.43c-.07.11-.16.1-.33.19s-.26.33-.47.44a.83.83,0,0,1-1-.26c-.06-.12,0-.22-.11-.49s-.11-.18-.14-.29a.83.83,0,0,1,.08-.5C45.39,42.6,45.22,42.47,45.42,42.24Z"/><path d="M47.63,47c.27,0,.48.15.76.37s.66.53.61.92a.78.78,0,0,1-.29.48.73.73,0,0,1-.5.29,1,1,0,0,0-.25,0,.82.82,0,0,0-.25.12c-.23.1-.87-.32-1-.91A1.14,1.14,0,0,1,47.63,47Z"/><path d="M48,52.58a.81.81,0,0,1,.65-.7c.25,0,.41.11.71,0s.17-.13.27-.13c.32,0,.72.64.55,1,0,.07,0,.06-.48.45a2.09,2.09,0,0,1-.22.19.89.89,0,0,1-.66,0C48.47,53.34,48,53,48,52.58Z"/><path d="M47.61,54.6a.74.74,0,0,1,.74.67.59.59,0,0,1-.12.37,1.18,1.18,0,0,1-.61.53c-.35.14-.87.13-1-.1s0-.14,0-.37-.22-.37-.18-.5.35-.1.79-.36C47.47,54.69,47.47,54.62,47.61,54.6Z"/><path d="M42.8,56.4c.48-.17.7,0,.8-.16s-.12-.82-.6-1a1,1,0,0,0-1.06.11c-.23.19-.26.44-.32.92,0,.24,0,.35.06.41s.14.08.39,0A3.85,3.85,0,0,0,42.8,56.4Z"/><path d="M39.6,56.41a.77.77,0,0,0,.28-.62.84.84,0,0,0-.32-.73c-.17-.11-.4-.08-.86,0a.89.89,0,0,0-.41.11c-.19.15-.21.4-.23.74s0,.47.08.62a.55.55,0,0,0,.41.19c.15,0,.18-.1.36-.18S39.38,56.54,39.6,56.41Z"/><path d="M35.21,55.06c.35,0,.77.31.81.67a.68.68,0,0,1-.11.42,1.1,1.1,0,0,1-.56.46c-.28.13-.69.32-1,.1a.89.89,0,0,1-.29-1A1.07,1.07,0,0,1,35.21,55.06Z"/><path d="M29.35,55.43c.18-.12.34.07.79,0s.36-.17.58-.13.53.26.5.43-.25.15-.31.36,0,.19,0,.32-.44.36-.67.38a1,1,0,0,1-.91-.3A.82.82,0,0,1,29.35,55.43Z"/><path d="M24.82,55.31c.1,0,1,0,1.15.43a.9.9,0,0,1-.09.61c-.05.16-.11.33-.24.37s-.12,0-.22,0a.51.51,0,0,0-.2.17A.92.92,0,0,1,24,56.78a.93.93,0,0,1,0-1.22A1,1,0,0,1,24.82,55.31Z"/><path d="M19.26,56.23a.52.52,0,0,1,.42-.19c.17,0,.19.16.41.21s.26,0,.48,0,.4.15.43.33-.11.19-.2.48,0,.24-.07.38A1.09,1.09,0,0,1,20,58a1,1,0,0,1-.84-.06.91.91,0,0,1-.36-.68A1.25,1.25,0,0,1,19.26,56.23Z"/><path d="M14.54,57.63c.1-.32,0-.43,0-.63s.71-.42,1-.42.75,0,.92.37A.89.89,0,0,1,16,58c-.44.14-.83-.34-1.32-.12-.15.06-.28.18-.31.14S14.46,57.87,14.54,57.63Z"/><path d="M11.75,56.84c.37,0,.55.55.57.61a1,1,0,0,1-.14.94,1.07,1.07,0,0,1-1.44-.06c-.17-.17-.3-.46-.21-.58s.13,0,.25-.13a.55.55,0,0,0,.17-.25A.92.92,0,0,1,11.75,56.84Z"/><path d="M8,58.85a.84.84,0,0,0,.54-.09.87.87,0,0,0,.34-.35.85.85,0,0,0,.2-.69.78.78,0,0,0-1-.41.84.84,0,0,0-.36.59c0,.2,0,.3,0,.51a.34.34,0,0,0,0,.24c0,.08.1.08.15.15s0,.36,0,.37S7.88,59.13,8,58.85Z"/><path d="M8.79,54c.13-.12.63,0,.81.36a.83.83,0,0,1-.08.75,2.78,2.78,0,0,1-.31.33,1.31,1.31,0,0,1-.33.3.68.68,0,0,1-.69-.13A.79.79,0,0,1,8,55.25c-.06-.19-.13-.58.07-.77s.35-.08.41-.21-.2-.44-.18-.46.27.32.4.26S8.74,54,8.79,54Z"/><path d="M10.41,48.59a1.22,1.22,0,0,1,.83.6,1.18,1.18,0,0,1,0,1c-.07.16-.19.46-.43.5s-.32-.24-.76-.37-.41,0-.55-.08a1.17,1.17,0,0,1,.23-1.63A1,1,0,0,1,10.41,48.59Z"/><path d="M11,43.29A4.73,4.73,0,0,1,11.3,42c.2-.61.3-.8.5-.87a.59.59,0,0,1,.39,0,.87.87,0,0,1,.48.47c.19.35.28.92,0,1.17s-.2.05-.36.17-.16.57-.46,1c0,.06-.29.39-.51.34S11,43.64,11,43.29Z"/><path d="M13.35,37.45c.1-.35.24-.78,0-1.05a.64.64,0,0,0-.63-.18c-.35.1-.45.53-.51.76a1.09,1.09,0,0,0,0,.73c.11.23.37.53.63.49S13.25,37.77,13.35,37.45Z"/><path d="M13.55,32.37a.83.83,0,0,1,.07-.5c0-.09.25-.62.72-.65a.59.59,0,0,1,.57.27.71.71,0,0,1-.06.59,1.66,1.66,0,0,0-.15.33c0,.19,0,.24,0,.33a.63.63,0,0,1-.81.11A.74.74,0,0,1,13.55,32.37Z"/><path d="M14.54,29.27a.81.81,0,0,1,0-1.08.7.7,0,0,1,.33-.22.9.9,0,0,1,1,.14c.1.13.18.35.1.47s-.08.07-.11.14a.53.53,0,0,0,0,.18c0,.19-.28.46-.59.53A.8.8,0,0,1,14.54,29.27Z"/><path d="M15.79,23.62a.8.8,0,0,1,.48-.15c.06,0,.48,0,.62.23a.47.47,0,0,1,.05.28c-.06.7-.09,1.05-.33,1.18a.76.76,0,0,1-.79-.09.82.82,0,0,1-.32-.55A.91.91,0,0,1,15.79,23.62Z"/><path d="M17.4,20.39a.71.71,0,0,1,.64,0,.76.76,0,0,1,.26.68,1.11,1.11,0,0,1-.47.81s-.48.27-.74.06a.69.69,0,0,1-.15-.59A1.09,1.09,0,0,1,17.4,20.39Z"/><path d="M17.94,16.38a.71.71,0,0,1,.54-.07.61.61,0,0,1,.41.17c.17.21.06.55,0,.74s-.21.6-.56.7a.57.57,0,0,1-.57-.12c-.16-.16-.11-.41,0-.87C17.77,16.63,17.8,16.48,17.94,16.38Z"/><path d="M18.13,13.65a.67.67,0,0,1,1.21-.19.85.85,0,0,1,.13.68.76.76,0,0,1-.6.59.73.73,0,0,1-.68-.38A.88.88,0,0,1,18.13,13.65Z"/><path d="M18.5,11.37a.6.6,0,0,1,.09-.33c.12-.16.25-.11.38-.27s.05-.25.18-.41a.57.57,0,0,1,.5-.22c.34,0,.45.52.45.55a.94.94,0,0,1-.07.58,1.14,1.14,0,0,1-.61.72c-.22.09-.63.16-.82-.05A.78.78,0,0,1,18.5,11.37Z"/><path d="M21.2,9.5c.06-.23.24-.6.6-.64a.63.63,0,0,1,.61.3c.1.18,0,.26-.05.93,0,.22,0,.3-.06.37a.65.65,0,0,1-.71,0A.91.91,0,0,1,21.2,9.5Z"/><path d="M23.4,8.53s-.13-.5.11-.68a.43.43,0,0,1,.36,0c.35,0,.92.31.94.82a.73.73,0,0,1-.42.71C24,9.46,23.51,9,23.4,8.53Z"/><path d="M25.35,8.48c-.15-.21-.16-.26-.16-.31,0-.26.43-.47.72-.54a.8.8,0,0,1,.27,0,.94.94,0,0,1,.63.54s.27.58,0,.88a.82.82,0,0,1-.89,0C25.72,9,25.6,8.82,25.35,8.48Z"/><path d="M24.68,10.2a1,1,0,0,1,1,1.14,1,1,0,0,1-1.18.69.88.88,0,0,1-.58-.68.84.84,0,0,1,.12-.58C24.08,10.69,24.31,10.25,24.68,10.2Z"/><path d="M28.51,8.82c0-.42.06-.55.1-.6A.7.7,0,0,1,29.09,8a1,1,0,0,1,.69.18.83.83,0,0,1,.24.25.93.93,0,0,1,0,.75,1,1,0,0,1-.37.63.81.81,0,0,1-.85,0C28.56,9.67,28.54,9.36,28.51,8.82Z"/><path d="M30.35,10.05a.75.75,0,0,1,.45-.38.7.7,0,0,1,.53.14,1.25,1.25,0,0,1,.48.75,1.23,1.23,0,0,1,0,1,.84.84,0,0,1-.4.36.89.89,0,0,1-.73-.06.93.93,0,0,1-.36-.28A1.39,1.39,0,0,1,30.35,10.05Z"/><path d="M32.15,12.21a.76.76,0,0,1,.33-.24A.79.79,0,0,1,33,12a1.26,1.26,0,0,1,.84,1.25.69.69,0,0,1-.16.32.76.76,0,0,1-.4.21,1.29,1.29,0,0,1-1.12,0,.82.82,0,0,1-.22-.3A1.21,1.21,0,0,1,32.15,12.21Z"/><path d="M30.59,16.61a1.14,1.14,0,0,1,.8.78,2,2,0,0,1-.11.89.28.28,0,0,1-.08.15c-.15.13-.44,0-.54,0a1.56,1.56,0,0,1-.88-1,.73.73,0,0,1,0-.66C30,16.45,30.55,16.59,30.59,16.61Z"/><path d="M32.74,15.87a.88.88,0,0,1,.06-.74.57.57,0,0,1,.41-.22c.21,0,.22.19.53.3s.33,0,.44.14.06.14.09.33c.07.51.16.53.11.68a.71.71,0,0,1-.45.43,1,1,0,0,1-.9-.3A1.18,1.18,0,0,1,32.74,15.87Z"/><path d="M34.92,19.19a1,1,0,0,1,0-.52,1,1,0,0,1,.56-.63.79.79,0,0,1,.62.07c.07,0,.06.06.2.17s.26.15.41.28.29.24.28.38-.07.14-.19.31-.13.33-.22.46a.93.93,0,0,1-1,.19A1.1,1.1,0,0,1,34.92,19.19Z"/><path d="M34.27,19.72a1,1,0,0,1,.39.66.75.75,0,0,0,.07.24c.07.15.17.19.25.28a.63.63,0,0,1,0,.76.61.61,0,0,1-.74.07.83.83,0,0,0-.15-.09c-.12,0-.19,0-.26,0s-.11-.21-.14-.38c-.08-.41-.27-.41-.34-.77a.79.79,0,0,1,.12-.73A.68.68,0,0,1,34.27,19.72Z"/><path d="M37.09,22a.91.91,0,0,1,.07-.74.71.71,0,0,1,.62-.36c.35,0,.53.51.58.75s0,.2,0,.52.07.28,0,.36a.63.63,0,0,1-.66.29C37.29,22.76,37.11,22.08,37.09,22Z"/><path d="M33,23.43a.75.75,0,0,1,.54.65c0,.22-.14.41-.06.5s.15,0,.17.05-.12.13-.26.28-.24.42-.42.48a.52.52,0,0,1-.33-.05c-.06,0-.54-.18-.6-.51,0-.15.07-.17.05-.33s-.36-.38-.32-.52.3-.12.32-.25S32,23.6,32,23.55s.15,0,.22,0C32.62,23.6,32.74,23.37,33,23.43Z"/><path d="M34.74,23.64a.77.77,0,0,1,.47-.51.87.87,0,0,1,.64.05c.08,0,.63.25.7.74a.72.72,0,0,1-.26.7.55.55,0,0,1-.28.05,1.35,1.35,0,0,1-.95-.23A.86.86,0,0,1,34.74,23.64Z"/><path d="M38.94,25.48a.74.74,0,0,1,.68,0c.45.21.51.82.54,1.1a1,1,0,0,1-.13.79.71.71,0,0,1-.77.24c-.26-.1-.55-.53-.67-.6l-.13-.06s-.05,0-.05,0,.12,0,.19-.08-.05-.4,0-.77A.83.83,0,0,1,38.94,25.48Z"/><path d="M38.16,32.44c.09-.12.31,0,.5-.08s.44-.59.44-.61a1.06,1.06,0,0,0-.69-1.24.84.84,0,0,0-.9.32c-.16.26-.06.55.05.9s.47.9.55.87S38.11,32.51,38.16,32.44Z"/><path d="M34.89,33.59c.25.07.36.35.42.49.18.42,0,.61.16,1.14a.94.94,0,0,1,.05.28.67.67,0,0,1-.25.49.91.91,0,0,1-1-.17,1.39,1.39,0,0,1-.21-1.75C34.22,33.82,34.58,33.5,34.89,33.59Z"/><path d="M35.45,26c0-.08,0-.66.32-.81a.71.71,0,0,1,.7.2.77.77,0,0,1,.24.44c0,.23-.1.33,0,.57s.11.17.1.25-.44.39-.76.3S35.46,26.33,35.45,26Z"/><path d="M34.05,27.7c.22.09.31.27.48.58a1.13,1.13,0,0,1,.22.69.73.73,0,0,1-.34.6.75.75,0,0,1-.6,0,1.26,1.26,0,0,1-.8-.64.92.92,0,0,1,.06-.85A.85.85,0,0,1,34.05,27.7Z"/><path d="M31.14,28.71a.63.63,0,0,1,.43,0c.21.1.2.29.4.34s.19,0,.3,0a.33.33,0,0,1,.14.24.82.82,0,0,1,0,.22h0a1.68,1.68,0,0,1,0,.67.72.72,0,0,1-.52.45c-.63.12-1.49-.93-1.26-1.51A.76.76,0,0,1,31.14,28.71Z"/><path d="M39.38,36.8a1.4,1.4,0,0,1,.09,1.56.67.67,0,0,1-.44.28,1.09,1.09,0,0,1-.61-.25h0l-.48-.22c-.47-.26-.77-1.55-.25-2S39,36.23,39.38,36.8Z"/><path d="M39.16,40.4c.09,0,.21.06.54.63a3,3,0,0,1,.48,1.15c0,.41,0,.86-.2.89s-.16-.22-.41-.28-.4.13-.57.06-.19-.24-.26-.64c-.22-1.2-.19-1.35-.09-1.49A.61.61,0,0,1,39.16,40.4Z"/><path d="M41.83,46.29c.32.07.46.53.67,1.21a1.82,1.82,0,0,1,.1,1.06s-.21.61-.54.63-.3-.21-1-1c-.28-.3-.32-.33-.35-.44C40.52,47.12,41.32,46.18,41.83,46.29Z"/><path d="M39.16,49.29a.76.76,0,0,1,.38.51,1.11,1.11,0,0,1-.64,1.27.71.71,0,0,1-.6,0,1.1,1.1,0,0,1,0-1.53A.88.88,0,0,1,39.16,49.29Z"/><path d="M34.44,49.32c.39,0,.73.86.51,1.43a.78.78,0,0,1-.45.48.85.85,0,0,1-1-.48C33.28,50.15,34,49.26,34.44,49.32Z"/><path d="M32.43,44.79a1,1,0,0,1,.1-.6.79.79,0,0,1,.83-.35c.36.11.46.57.54.92a1.85,1.85,0,0,1-.1,1.09c-.08.19-.14.34-.28.38-.31.09-.7-.39-.86-.67A1.71,1.71,0,0,1,32.43,44.79Z"/><path d="M34.31,41.26a1.81,1.81,0,0,1-.16-.32c0-.11-.07-.17-.06-.2s.36-.35.66-.31a.66.66,0,0,1,.48.31.49.49,0,0,1,.05.4.54.54,0,0,1-.35.33A.62.62,0,0,1,34.31,41.26Z"/><path d="M29.6,49.81a.81.81,0,0,1,.09.91,1,1,0,0,1-.7.51,1.15,1.15,0,0,1-.78-.15c-.05,0-.49-.27-.45-.52a.35.35,0,0,1,.18-.21c.16-.1.25,0,.38-.11s.12-.31.27-.47A.76.76,0,0,1,29.6,49.81Z"/><path d="M28.3,45.13c.56.3.52,1.1.51,1.24s-.07.77-.47.92a.7.7,0,0,1-.31,0A.81.81,0,0,1,27.6,47c-.46-.53-.69-.79-.65-1.14a1,1,0,0,1,.7-.82A.88.88,0,0,1,28.3,45.13Z"/><path d="M25.91,50.11a1.16,1.16,0,0,1,.2.61c0,.12,0,.21,0,.26a1.23,1.23,0,0,1,0,.34c-.08.19-.33.26-.72.36s-.57.14-.7.07a.88.88,0,0,1-.22-1C24.7,50.08,25.64,49.86,25.91,50.11Z"/><path d="M26.18,40.74a.85.85,0,0,1,.2.63,1,1,0,0,1-.89.64,1.05,1.05,0,0,1-.75-.21c-.38-.32-.51-.92-.31-1.12s.32,0,.74-.11c.27-.08.31-.18.49-.17A.76.76,0,0,1,26.18,40.74Z"/><path d="M29.27,40.56c.21-.42.69-.75.94-.65a1,1,0,0,0,.21.11c.19,0,.28,0,.38,0s.2.09.27.68.13,1.08-.18,1.44c-.14.17-.41.38-.61.31s-.15-.18-.34-.26-.19,0-.31,0-.36-.44-.41-.6A1.34,1.34,0,0,1,29.27,40.56Z"/><path d="M29.26,35.61c-.06-.13-.32-.69,0-1a1.08,1.08,0,0,1,1.51.08,1.66,1.66,0,0,1,.16.86h0A.92.92,0,0,1,31,36a.57.57,0,0,1-.26.3.84.84,0,0,1-.66.06A1.27,1.27,0,0,1,29.26,35.61Z"/><path d="M28.46,29.72a1.29,1.29,0,0,1,.53.51,1.77,1.77,0,0,1-.09,1.46c-.12.3-.2.35-.24.37-.29.16-.81-.12-1-.5a5.76,5.76,0,0,1-.22-.81,1.43,1.43,0,0,1-.09-.61.79.79,0,0,1,.43-.58A.9.9,0,0,1,28.46,29.72Z"/><path d="M26.68,32a.82.82,0,0,1,.09,1s-.22.28-.2.42v0a.34.34,0,0,0,.18.18s-.2-.14-.37-.09-.1.08-.17.11-.5-.11-.66-.32a.92.92,0,0,1-.07-1A.88.88,0,0,1,26.68,32Z"/><path d="M26.72,34.94a.65.65,0,0,1,.34.6c0,.1-.07.13-.13.23-.25.41,0,.73-.19,1.06a.7.7,0,0,1-.69.33c-.3-.09-.4-.5-.45-.71-.1-.41-.13-1.2.36-1.49A.79.79,0,0,1,26.72,34.94Z"/><path d="M24.49,13.24a2,2,0,0,1,.16,1.24c-.07.33-.15.66-.43.79a.77.77,0,0,1-.6,0,.94.94,0,0,1-.41-.69c-.09-.35-.1-1,.21-1.17.16-.09.27,0,.51-.16s.23-.21.34-.2S24.42,13.13,24.49,13.24Z"/><path d="M26.12,13.51c-.22.14-.16.55-.05,1.3.14.94.36,1.06.43,1.09a.66.66,0,0,0,.45,0,.74.74,0,0,0,.45-.34.89.89,0,0,0,0-.88c-.17-.27-.41-.29-.45-.56s0-.19,0-.3A.66.66,0,0,0,26.12,13.51Z"/><path d="M22.36,13.65a1,1,0,0,1-.75,1.48c-.24,0-.31-.19-.7-.23a1.67,1.67,0,0,1-.33,0s.25,0,.34-.16a.42.42,0,0,0,0-.31c0-.21-.14-.25-.14-.34C20.8,13.76,22,13.21,22.36,13.65Z"/><path d="M21.7,18.12c.27.1.36.49.39.66a1,1,0,0,1-.1.81.88.88,0,0,1-.53.31.74.74,0,0,1-.57-.11.9.9,0,0,1-.16-1C20.88,18.38,21.36,18,21.7,18.12Z"/><path d="M23.35,18.53c0-.1.13-.08.27-.22s.15-.34.27-.41.91.3.87.61c0,.11-.1.12-.15.29s0,.27,0,.45a.84.84,0,0,1-.63.58.44.44,0,0,1-.32,0c-.15-.1-.06-.29-.16-.69S23.28,18.68,23.35,18.53Z"/><path d="M25.67,19a.83.83,0,0,1,.13-.72.76.76,0,0,1,.49-.23,1,1,0,0,1,1,.65,1.11,1.11,0,0,1-.06.86.73.73,0,0,1-.3.4C26.53,20.16,25.81,19.65,25.67,19Z"/><path d="M22.51,22.83a.61.61,0,0,1-.18.58,1.07,1.07,0,0,1-.45.16c-.27.06-.4.09-.49,0s0-.15-.11-.34S21,23,21,22.85s.43-.37.67-.41a.61.61,0,0,1,.3,0A.63.63,0,0,1,22.51,22.83Z"/><path d="M23.69,24.6a.94.94,0,0,1-.16-.72c.08-.2.25-.29.56-.45s.55-.29.79-.2a.69.69,0,0,1,.38.39.77.77,0,0,1,0,.47c-.05.23-.14.25-.18.49s0,.23,0,.34a.62.62,0,0,1-.59.3C24.05,25.21,23.78,24.75,23.69,24.6Z"/><path d="M26.23,24.4a1,1,0,0,1-.05-1.17,1.31,1.31,0,0,1,.54-.38,1.22,1.22,0,0,1,.74-.23c.22,0,.51.14.57.36,0,0,0,.07,0,.27-.15.67-.16.68-.17.77s0,.29,0,.36-.2,0-.4.07-.35.28-.57.31S26.27,24.44,26.23,24.4Z"/><path d="M25.44,27.29c.22.22.19.53.14,1s-.06.67-.28.8a.78.78,0,0,1-.65-.09,1.16,1.16,0,0,1-.49-.72,1,1,0,0,1,.11-1A.88.88,0,0,1,25.44,27.29Z"/><path d="M20.42,27.37c.34-.05.37-.46.81-.58.06,0,.21-.05.22-.11s-.1-.06-.13-.14.07-.2.14-.4a.8.8,0,0,0,.06-.38.77.77,0,0,0-.67-.61c-.16,0-.32.11-.63.33s-.51.37-.54.57.06.15.11.42,0,.43.05.59A.61.61,0,0,0,20.42,27.37Z"/><path d="M22.45,31.72c-.12-.36-.2-.58-.09-.72s.27-.1.67-.12a1.36,1.36,0,0,1,.47,0,.76.76,0,0,1,.5.73c0,.27-.24.43-.45.6a1,1,0,0,1-.25.14.63.63,0,0,1-.43,0C22.65,32.29,22.57,32.06,22.45,31.72Z"/><path d="M22.27,33.65a.84.84,0,0,1,.07,1.06.74.74,0,0,1-.57.32c-.33,0-.48-.36-.81-.3-.11,0-.17.07-.23,0s-.13-.33-.09-.5a.91.91,0,0,1,.32-.51C21.26,33.51,21.9,33.28,22.27,33.65Z"/><path d="M21.75,37.12a1,1,0,0,1-.48,1.08.64.64,0,0,1-.49.14c-.28-.05-.43-.37-.47-.59a.82.82,0,0,1,.15-.61.79.79,0,0,1,.3-.25.84.84,0,0,1,.76-.08A.56.56,0,0,1,21.75,37.12Z"/><path d="M21.77,42.48l.14-.32c.24-.49.39-.59.36-.78a.57.57,0,0,0-.43-.39.77.77,0,0,0-.61.14c-.16.11-.14.17-.47.52-.17.19-.2.19-.21.26-.09.29.29.81.73.81A.75.75,0,0,0,21.77,42.48Z"/><path d="M20.85,45.45a.6.6,0,0,1,.6.34c.19-.09.26,0,.28,0s0,.15,0,.52c0,.1,0,.16,0,.23a.61.61,0,0,1-.18.18,1.76,1.76,0,0,1-.2.13.77.77,0,0,1-.72,0c-.3-.22-.22-.71-.11-1S20.65,45.5,20.85,45.45Z"/><path d="M21,49.82a.76.76,0,0,1,.4.26.73.73,0,0,1,0,.79.82.82,0,0,1-.45.34c-.26.12-.74.34-1.06.09a.86.86,0,0,1-.14-1A1.07,1.07,0,0,1,21,49.82Z"/><path d="M15.06,52.52c.29-.16.41-.2.54-.18a.55.55,0,0,1,.32.18c.09.13,0,.21.13.4s.11.13.19.27.21.6.06.76-.08,0-.2.09a1,1,0,0,0-.39.57c0,.08,0,.16,0,.16s-.07-.12-.16-.18-.29.09-.47.08-.5-.51-.56-.65a1.21,1.21,0,0,1,0-1.08C14.51,52.83,14.69,52.73,15.06,52.52Z"/><path d="M16.28,48.19a.86.86,0,0,1,.59.39,1.06,1.06,0,0,1-.09.85,1.46,1.46,0,0,1-.39.74,1.32,1.32,0,0,1-1.84-.49,1.26,1.26,0,0,1,.6-1.33A1.39,1.39,0,0,1,16.28,48.19Z"/><path d="M16.93,43.71c.12.15.1.47.07,1.09a.67.67,0,0,1-.13.44.52.52,0,0,1-.41.18c-.43-.05-.6-.88-.61-1,0-.24-.16-.82.16-1A.78.78,0,0,1,16.93,43.71Z"/><path d="M17.07,39.68c.31,0,.51.44.52.48a1,1,0,0,1,0,.76,1.23,1.23,0,0,1-.55.68.77.77,0,0,1-.65.14,1,1,0,0,1-.43-.9.72.72,0,0,0,0-.28c0-.13-.12-.15-.13-.25a.3.3,0,0,1,.15-.26c.1,0,.19,0,.3,0C16.63,40.09,16.76,39.66,17.07,39.68Z"/><path d="M17.58,35.77c.1-.17.09-.3.21-.34a.37.37,0,0,1,.34.14.46.46,0,0,1,.09.43c0,.09-.08.12-.07.2s.08.12.13.18a.57.57,0,0,1,0,.6c-.16.22-.49.06-.69.32s-.07.21-.16.23-.1,0-.4-.21a1.17,1.17,0,0,1-.28-.27.76.76,0,0,1,.1-.74C17.1,36,17.38,36.1,17.58,35.77Z"/><path d="M17.61,33.59c-.22-.3-.27-.77-.09-.92s.12,0,.58-.05a.66.66,0,0,0,.41-.12c.08-.08.08-.15.15-.17s.23.12.3.26a1.15,1.15,0,0,1-.05.91c-.09.24-.13.36-.24.43A.89.89,0,0,1,17.61,33.59Z"/><path d="M18.89,30.82a.81.81,0,0,0,.77,0c.07,0,.44-.17.51-.45a1.56,1.56,0,0,1,.07-.34.72.72,0,0,1,.09-.18.92.92,0,0,0,0-.81c-.1-.19-.32-.38-.47-.33s-.08.18-.23.29-.3,0-.42.14,0,.22-.14.36-.25.1-.36.24a.62.62,0,0,0-.07.54A.7.7,0,0,0,18.89,30.82Z"/><path d="M26.61,26.63c.12-.24.34-.18.64-.48s.25-.48.46-.55a.67.67,0,0,1,.74.46c0,.18-.12.25-.12.52a1.53,1.53,0,0,0,.14.5,1.07,1.07,0,0,1-.33,1.15c-.38.23-.88-.07-1-.12a1.36,1.36,0,0,1-.57-.88A.83.83,0,0,1,26.61,26.63Z"/><path d="M30,22.5c.32.21.25.47.52.64a.67.67,0,0,0,.6.05c.2-.09.28-.28.38-.5a1,1,0,0,0,.12-.5.74.74,0,0,0-.17-.46.81.81,0,0,0-.64-.24.8.8,0,0,0-.67.43c-.05.13,0,.23-.12.31s-.25.05-.26.1S29.91,22.42,30,22.5Z"/><path d="M28.14,67.27c1,1,2.92,2.7,4.35,1.87a1.61,1.61,0,0,0,.77-1.36A6.07,6.07,0,0,0,31,62.57a2.7,2.7,0,0,0-2-.45c-1.57.25-4.65.67-5.77.23,0,0-2.11-1.13-3.28-.07s0,2.59,0,2.59,2,1.32,6.53,1.61A2.61,2.61,0,0,1,28.14,67.27Z"/><ellipse cx="35.06" cy="68.59" rx="1.39" ry="1.01"/><ellipse cx="34.33" cy="66.61" rx="0.81" ry="0.59"/><ellipse cx="33.93" cy="65.06" rx="0.75" ry="0.54"/><ellipse cx="33.52" cy="63.61" rx="0.71" ry="0.51"/><ellipse cx="32.81" cy="62.48" rx="0.62" ry="0.41"/><path d="M9.89,66.15c1-1,2.92-2.7,4.35-1.87A1.6,1.6,0,0,1,15,65.64a6.09,6.09,0,0,1-2.28,5.21,2.71,2.71,0,0,1-2,.45c-1.56-.25-4.64-.67-5.76-.23,0,0-2.12,1.13-3.28.07s0-2.59,0-2.59,2-1.32,6.53-1.62A2.6,2.6,0,0,0,9.89,66.15Z"/><ellipse cx="16.8" cy="64.83" rx="1.39" ry="1.01"/><ellipse cx="16.07" cy="66.81" rx="0.81" ry="0.59"/><ellipse cx="15.67" cy="68.36" rx="0.75" ry="0.54"/><ellipse cx="15.27" cy="69.81" rx="0.71" ry="0.51"/><ellipse cx="14.56" cy="70.94" rx="0.62" ry="0.41"/><path d="M45.83,66.27c1-1,2.92-2.7,4.36-1.88A1.64,1.64,0,0,1,51,65.75,6.07,6.07,0,0,1,48.67,71a2.7,2.7,0,0,1-2,.46c-1.57-.25-4.65-.67-5.76-.23,0,0-2.12,1.13-3.29.06s0-2.59,0-2.59,2-1.31,6.53-1.61A2.6,2.6,0,0,0,45.83,66.27Z"/><ellipse cx="52.75" cy="64.95" rx="1.39" ry="1.01"/><ellipse cx="52.02" cy="66.93" rx="0.81" ry="0.59"/><ellipse cx="51.62" cy="68.48" rx="0.75" ry="0.54"/><ellipse cx="51.21" cy="69.92" rx="0.71" ry="0.51"/><ellipse cx="50.5" cy="71.05" rx="0.62" ry="0.41"/><path d="M3.22,80.5V75.26h-2v-.7H6v.7H4V80.5Z"/><path d="M7.76,80.5V74.56h.79V80.5Z"/><path d="M10.3,80.5v-.73l3-3.8c.21-.27.42-.5.61-.71H10.65v-.7H14.9v.7l-3.33,4.13-.36.41H15v.7Z"/><path d="M16,80.5l2.28-5.94h.85L21.6,80.5h-.9L20,78.7H17.53l-.66,1.8Zm1.71-2.44h2l-.62-1.64q-.28-.75-.42-1.23a9.05,9.05,0,0,1-.32,1.13Z"/><path d="M24.13,80.5V78l-2.29-3.43h1L24,76.36c.21.33.42.66.6,1,.18-.31.4-.66.65-1l1.15-1.75h.92L24.92,78V80.5Z"/><path d="M28.6,77.61a3.21,3.21,0,0,1,.79-2.31,2.69,2.69,0,0,1,2.05-.84,2.85,2.85,0,0,1,1.48.39,2.5,2.5,0,0,1,1,1.1,3.57,3.57,0,0,1,.35,1.59,3.45,3.45,0,0,1-.37,1.62,2.5,2.5,0,0,1-1,1.08,3,3,0,0,1-1.44.37,2.81,2.81,0,0,1-1.5-.41,2.62,2.62,0,0,1-1-1.11A3.28,3.28,0,0,1,28.6,77.61Zm.81,0A2.34,2.34,0,0,0,30,79.31a1.85,1.85,0,0,0,1.44.62,1.9,1.9,0,0,0,1.46-.62,2.5,2.5,0,0,0,.58-1.77,2.94,2.94,0,0,0-.25-1.27,1.89,1.89,0,0,0-.71-.84,1.94,1.94,0,0,0-1.06-.29,2,2,0,0,0-1.44.57A2.56,2.56,0,0,0,29.41,77.62Z"/><path d="M40.38,78.42l.78.2a2.61,2.61,0,0,1-.89,1.48,2.45,2.45,0,0,1-1.57.51,2.82,2.82,0,0,1-1.56-.4,2.42,2.42,0,0,1-.92-1.13,4.17,4.17,0,0,1-.31-1.59,3.58,3.58,0,0,1,.35-1.62,2.5,2.5,0,0,1,1-1.05,3,3,0,0,1,1.44-.36,2.37,2.37,0,0,1,1.5.46,2.31,2.31,0,0,1,.85,1.27l-.77.19a1.86,1.86,0,0,0-.6-.95,1.61,1.61,0,0,0-1-.29,1.93,1.93,0,0,0-1.15.32,1.77,1.77,0,0,0-.64.88,3.43,3.43,0,0,0-.19,1.15,3.58,3.58,0,0,0,.22,1.32,1.62,1.62,0,0,0,.69.84,1.88,1.88,0,0,0,1,.28,1.67,1.67,0,0,0,1.12-.38A2,2,0,0,0,40.38,78.42Z"/><path d="M42.32,80.5l2.28-5.94h.85l2.43,5.94H47l-.7-1.8H43.81l-.65,1.8ZM44,78.06h2l-.62-1.64q-.28-.75-.42-1.23a7.62,7.62,0,0,1-.32,1.13Z"/><path d="M49.35,80.5V74.56h.8l3.12,4.67V74.56H54V80.5h-.81L50.1,75.84V80.5Z"/></g></g></svg>