<svg xmlns="http://www.w3.org/2000/svg" viewBox="0 0 161.07 49.6"><defs><style>.cls-1{fill:#e3241f;}.cls-2{fill:#293259;}</style></defs><g id="Capa_2" data-name="Capa 2"><g id="Capa_2-2" data-name="Capa 2"><circle class="cls-1" cx="36.8" cy="24.8" r="6.23"/><circle class="cls-1" cx="100.43" cy="24.8" r="6.23"/><circle class="cls-1" cx="131.45" cy="24.8" r="6.23"/><polygon class="cls-2" points="81.18 0.01 75.64 49.59 89.49 49.59 93.54 13.84 107.39 13.84 111.37 49.59 125.22 49.59 119.77 0.01 81.18 0.01"/><path class="cls-2" d="M129.78,40.29c0-1.28.16-1.79,1.27-1.79a4.21,4.21,0,0,1,.86.09v.52a3.94,3.94,0,0,0-.69-.07c-.68,0-.77.21-.77,1.25s.09,1.25.78,1.25a3.33,3.33,0,0,0,.7-.07V42a3.69,3.69,0,0,1-.86.1C129.87,42.09,129.78,41.53,129.78,40.29Z"/><path class="cls-2" d="M135.39,37h.69v.73h-.69Zm0,1.59h.66V42h-.66Z"/><path class="cls-2" d="M139.72,40.75v-2.2h.66v2c0,.89.09,1,.65,1s.69-.38.69-1.14V38.55h.66V42h-.6l0-.47h0a.93.93,0,0,1-1,.53C139.86,42.09,139.72,41.67,139.72,40.75Z"/><path class="cls-2" d="M145.93,40.3c0-1.41.24-1.8,1.09-1.8.45,0,.77.11.93.46h0V37h.67V42h-.61l0-.46h0a.9.9,0,0,1-1,.52C146.18,42.09,145.93,41.72,145.93,40.3Zm2,.86a2.77,2.77,0,0,0,.08-.9,3.33,3.33,0,0,0-.06-.77c-.08-.3-.27-.41-.65-.41-.61,0-.69.12-.69,1.21s.08,1.22.71,1.22C147.65,41.51,147.84,41.41,147.91,41.16Z"/><path class="cls-2" d="M152.13,41.06c0-.77.22-1,1-1,.17,0,.68,0,1,0v-.21c0-.74-.13-.8-.86-.8a9,9,0,0,0-.93.07V38.6a6.24,6.24,0,0,1,1.13-.1c1.15,0,1.32.35,1.32,1.36V42h-.6l0-.46h0a1,1,0,0,1-1,.52C152.44,42.09,152.13,41.84,152.13,41.06Zm1.88.23a1.39,1.39,0,0,0,.11-.64v-.19h-.83c-.42,0-.52.07-.52.55s.1.54.61.54C153.67,41.55,153.9,41.52,154,41.29Z"/><path class="cls-2" d="M158.32,40.3c0-1.41.25-1.8,1.09-1.8a.91.91,0,0,1,.94.46h0V37h.66V42h-.61l0-.46h0a.89.89,0,0,1-1,.52C158.57,42.09,158.32,41.72,158.32,40.3Zm2,.86a3.09,3.09,0,0,0,.08-.9,3.26,3.26,0,0,0-.07-.77c-.08-.3-.27-.41-.64-.41-.62,0-.7.12-.7,1.21s.08,1.22.71,1.22C160,41.51,160.23,41.41,160.31,41.16Z"/><path class="cls-2" d="M129.71,48.57c0-.78.22-1,1-1,.17,0,.68,0,1,0v-.21c0-.74-.13-.8-.86-.8a9,9,0,0,0-.93.07v-.51A6.24,6.24,0,0,1,131,46c1.15,0,1.32.34,1.32,1.36v2.17h-.6l0-.46h0a1,1,0,0,1-1,.52C130,49.6,129.71,49.34,129.71,48.57Zm1.88.23a1.39,1.39,0,0,0,.11-.64V48h-.83c-.42,0-.52.07-.52.55s.1.54.61.54C131.25,49.06,131.48,49,131.59,48.8Z"/><path class="cls-2" d="M136,49.08H136l0,.46h-.6V44.47H136v2h0c.17-.36.49-.46.94-.46.84,0,1.08.38,1.08,1.79s-.25,1.8-1.1,1.8A.87.87,0,0,1,136,49.08Zm1.38-1.28c0-1.09-.07-1.21-.7-1.21-.34,0-.52.09-.61.32a4.6,4.6,0,0,0,0,1.76c.09.25.28.35.62.35C137.33,49,137.4,48.9,137.4,47.8Z"/><path class="cls-2" d="M140.92,44.47h.69v.73h-.69Zm0,1.59h.66v3.48h-.66Z"/><path class="cls-2" d="M147.13,48h-2c0,.88.06,1,.92,1a8.51,8.51,0,0,0,1-.07v.51a5,5,0,0,1-1.11.11c-1.31,0-1.44-.45-1.44-1.79s.09-1.8,1.39-1.8,1.28.47,1.28,1.79Zm-2-.45h1.37v-.05c0-.88-.13-1-.65-1S145.12,46.68,145.12,47.56Z"/><path class="cls-2" d="M150,46.06h.6l0,.63h.05c.15-.55.51-.68,1-.68v.65c-.81,0-1,.39-1,1.32v1.56H150Z"/><path class="cls-2" d="M154.64,46.61h-.59v-.55h.59v-1h.67v1H156v.55h-.69v2.93h-.67Z"/><path class="cls-2" d="M158.41,48.57c0-.78.22-1,1-1,.18,0,.68,0,1,0v-.21c0-.74-.13-.8-.87-.8-.25,0-.69,0-.93.07v-.51a6.45,6.45,0,0,1,1.14-.1c1.14,0,1.32.34,1.32,1.36v2.17h-.61l0-.46h-.05a1,1,0,0,1-1,.52C158.73,49.6,158.41,49.34,158.41,48.57Zm1.89.23a1.53,1.53,0,0,0,.11-.64V48h-.83c-.43,0-.52.07-.52.55s.1.54.6.54C160,49.06,160.18,49,160.3,48.8Z"/><rect class="cls-2" x="29.88" y="35.74" width="13.85" height="13.85" transform="translate(-5.86 79.46) rotate(-90)"/><polygon class="cls-2" points="72.74 0 48 0 48 13.85 57.82 13.85 48 35.74 48 49.58 72.74 49.58 72.74 35.74 62.34 35.74 72.74 13.85 72.73 13.85 72.74 13.85 72.74 0"/><polygon class="cls-2" points="36.94 0 0 0 0 13.85 11.54 13.85 11.54 49.58 25.39 49.58 25.39 13.85 36.94 13.85 36.94 0"/></g></g></svg>